<svg width="500" height="322" viewBox="0 0 500 322" fill="none" xmlns="http://www.w3.org/2000/svg">
<path fill-rule="evenodd" clip-rule="evenodd" d="M0 282.858C0 293.931 12.8311 304.138 23.1488 305.542C98.2938 315.763 174.094 321.712 249.955 321.749C325.83 321.785 401.641 315.795 476.798 305.579C487.114 304.177 500 293.929 500 282.859C500 242.229 500 201.597 500 160.966C500 120.324 500 79.6794 500 39.0367C500 27.9667 487.123 17.684 476.798 16.2809C401.636 6.06331 325.825 0.00195312 249.946 0.00195312C174.087 0.00195312 98.2908 6.02539 23.1488 16.2445C12.8053 17.6506 0 27.9637 0 39.0367C0 79.6794 0 120.324 0 160.966C0 201.597 0 242.229 0 282.859L0 282.858Z" fill="#333333" fill-opacity="0.5"/>
</svg>
